<svg width="54" height="54" viewBox="0 0 54 54" fill="none" xmlns="http://www.w3.org/2000/svg">
<path d="M34.8984 2.28143C39.9184 3.45143 45.2684 8.52143 48.2484 13.1514C51.2184 17.7814 53.6284 24.6814 52.7484 30.0514C51.8584 35.4314 47.2384 41.8714 42.9184 45.4314C38.5884 48.9814 32.2984 51.2514 26.8084 51.4014C21.3284 51.5514 14.1684 49.6714 10.0084 46.3414C5.84838 43.0214 2.91838 36.7214 1.84838 31.4314C0.778376 26.1514 0.858376 19.4414 3.59838 14.6214C6.33838 9.81143 12.6884 4.53143 18.2984 2.55143C23.8984 0.571429 33.8784 2.24143 37.2184 2.74143C40.5584 3.24143 38.5684 5.04143 38.3384 5.55143M34.0784 2.29143C38.7884 3.86143 44.0884 9.02143 46.9284 13.7414C49.7784 18.4714 51.4784 25.1414 51.1484 30.6314C50.8284 36.1114 49.0684 43.0314 44.9884 46.6514C40.9084 50.2714 32.1084 52.2614 26.6684 52.3514C21.2384 52.4414 16.5684 50.6314 12.3684 47.1914C8.15838 43.7614 2.73838 37.0714 1.44838 31.7514C0.158376 26.4214 2.09838 20.0314 4.63838 15.2514C7.16838 10.4714 11.8384 5.33143 16.6884 3.06143C21.5384 0.791429 30.6984 1.75143 33.7384 1.63143C36.7684 1.51143 34.9284 1.96143 34.8884 2.34143" stroke="black" stroke-width="2" stroke-linecap="round"/>
<path d="M29.8717 14.3207C32.1892 9.48414 38.8396 14.4752 36.6096 18.158C34.4571 21.7126 29.6736 20.0213 29.1658 16.5454" stroke="black" stroke-opacity="0.9" stroke-width="1.72" stroke-linecap="round" stroke-linejoin="round"/>
<path d="M20.4531 27.5614C22.3052 27.166 22.6161 24.3335 23.874 23.5096C24.0528 23.3927 29.5378 22.3481 29.6632 22.3891C34.0814 23.8321 29.258 30.986 37.1401 27.5614" stroke="black" stroke-opacity="0.9" stroke-width="1.72" stroke-linecap="round" stroke-linejoin="round"/>
<path d="M29.6546 22.5977C27.1605 24.8242 24.2183 34.865 23.7612 35.2869C22.3744 35.7541 18.4616 36.2625 16.5974 37.4658L15.788 38.5128" stroke="black" stroke-opacity="0.9" stroke-width="1.72" stroke-linecap="round" stroke-linejoin="round"/>
<path d="M26.5537 30.8086C26.7501 30.9107 28.9504 32.2945 30.0381 34.7498C31.1049 37.1579 31.2958 40.6628 31.9367 40.6628" stroke="black" stroke-opacity="0.9" stroke-width="1.72" stroke-linecap="round" stroke-linejoin="round"/>
</svg>
