<svg xmlns="http://www.w3.org/2000/svg" width="800px" height="800px" viewBox="0 0 408 408" fill="none">
<g filter="url(#filter0_d_614_31)">
<path d="M126.256 54.4112C151.943 9.27032 208.201 62.334 174.575 95.7908C145.436 124.781 112.765 85.9458 124.421 55.0202" stroke="#000000" stroke-opacity="0.9" stroke-width="16" stroke-linecap="round" stroke-linejoin="round"/>
<path d="M137.48 122.589C139.268 173.226 147.754 227.585 147.754 278.35" stroke="#000000" stroke-opacity="0.9" stroke-width="16" stroke-linecap="round" stroke-linejoin="round"/>
<path d="M147.753 278.35C125.807 296.077 99.8122 320.861 74.332 333.602" stroke="#000000" stroke-opacity="0.9" stroke-width="16" stroke-linecap="round" stroke-linejoin="round"/>
<path d="M74.332 333.602C74.8656 337.843 83.364 345.07 84.856 346.231" stroke="#000000" stroke-opacity="0.9" stroke-width="16" stroke-linecap="round" stroke-linejoin="round"/>
<path d="M137.48 122.589C107.718 161.277 147.416 195.01 179.577 205.731" stroke="#000000" stroke-opacity="0.9" stroke-width="16" stroke-linecap="round" stroke-linejoin="round"/>
<path d="M143.792 205.73C142.897 254.843 129.059 307.275 129.059 356.228" stroke="#000000" stroke-opacity="0.9" stroke-width="16" stroke-linecap="round" stroke-linejoin="round"/>
<path d="M129.059 356.229C133.299 357.531 142.099 356.954 143.792 356.229" stroke="#000000" stroke-opacity="0.9" stroke-width="16" stroke-linecap="round" stroke-linejoin="round"/>
<path d="M180.219 203.582C184.809 199.01 191.298 198.746 194.955 203.97" stroke="#000000" stroke-opacity="0.9" stroke-width="16" stroke-linecap="round" stroke-linejoin="round"/>
<path opacity="0.5" d="M185.258 207.072C229.113 247.698 279.119 282.319 321.377 324.578" stroke="#000000" stroke-opacity="0.9" stroke-width="16" stroke-linecap="round" stroke-linejoin="round"/>
<path opacity="0.5" d="M221.714 241.976C220.911 268.024 223.265 308.609 223.265 326.516" stroke="#000000" stroke-opacity="0.9" stroke-width="16" stroke-linecap="round" stroke-linejoin="round"/>
<path d="M189.91 229.953C186.968 287.853 322.719 293.377 322.54 240.424" stroke="#000000" stroke-opacity="0.9" stroke-width="16" stroke-linecap="round" stroke-linejoin="round"/>
<path d="M189.523 224.911C209.761 219.82 231.792 221.422 252.736 221.422" stroke="#000000" stroke-opacity="0.9" stroke-width="16" stroke-linecap="round" stroke-linejoin="round"/>
<path d="M321.765 244.303C301.212 237.541 279.436 236.374 259.328 230.341" stroke="#000000" stroke-opacity="0.9" stroke-width="16" stroke-linecap="round" stroke-linejoin="round"/>
<path d="M256.989 229.953C255.297 209.399 260.002 180.17 261.554 159.635" stroke="#000000" stroke-opacity="0.9" stroke-width="16" stroke-linecap="round" stroke-linejoin="round"/>
<path d="M265.146 164.414C304.745 163.326 324.851 208.091 322.541 240.424" stroke="#000000" stroke-opacity="0.9" stroke-width="16" stroke-linecap="round" stroke-linejoin="round"/>
<path opacity="0.5" d="M208.769 333.602C252.736 310.508 229.598 385.803 207.75 355.215C204.189 350.228 203.737 344.16 205.423 338.539" stroke="#000000" stroke-opacity="0.9" stroke-width="16" stroke-linecap="round" stroke-linejoin="round"/>
<path opacity="0.5" d="M301.987 335.048C349.637 299.109 338.239 382.988 305.866 357.153C300.39 352.784 300.582 343.092 301.6 336.987" stroke="#000000" stroke-opacity="0.9" stroke-width="16" stroke-linecap="round" stroke-linejoin="round"/>
</g>
<defs>
<filter id="filter0_d_614_31" x="0" y="0" width="408" height="408" filterUnits="userSpaceOnUse" color-interpolation-filters="sRGB">
<feFlood flood-opacity="0" result="BackgroundImageFix"/>
<feColorMatrix in="SourceAlpha" type="matrix" values="0 0 0 0 0 0 0 0 0 0 0 0 0 0 0 0 0 0 127 0" result="hardAlpha"/>
<feOffset dy="4"/>
<feGaussianBlur stdDeviation="2"/>
<feComposite in2="hardAlpha" operator="out"/>
<feColorMatrix type="matrix" values="0 0 0 0 0 0 0 0 0 0 0 0 0 0 0 0 0 0 0.25 0"/>
<feBlend mode="normal" in2="BackgroundImageFix" result="effect1_dropShadow_614_31"/>
<feBlend mode="normal" in="SourceGraphic" in2="effect1_dropShadow_614_31" result="shape"/>
</filter>
</defs>
</svg>