<svg xmlns="http://www.w3.org/2000/svg" width="800px" height="800px" viewBox="0 0 400 400" fill="none">
<path d="M136.321 95.7854C172.731 95.452 196.648 94.9459 208.073 94.2669C225.209 93.2484 263.404 92.4634 270.086 96.3145C276.767 100.166 296 119.797 296 123.105C296 126.414 275.024 145.445 273.677 146.525C272.329 147.605 267.998 149.969 263.344 149.969C258.69 149.969 140.626 153.263 134.497 149.969C128.369 146.674 132.159 115.464 132.159 112.517C132.159 109.571 132.159 106.373 132.159 104.151" stroke="#000000" stroke-opacity="0.9" stroke-width="16" stroke-linecap="round" stroke-linejoin="round"/>
<path d="M264.679 172.285C228.269 172.285 204.352 171.945 192.927 171.267C175.791 170.249 137.596 169.464 130.914 173.313C124.233 177.163 105 196.287 105 199.594C105 202.9 125.976 223.423 127.323 224.502C128.671 225.582 133.002 227.945 137.656 227.945C142.31 227.945 260.374 229.739 266.503 226.446C272.631 223.153 268.841 191.955 268.841 189.01C268.841 186.064 268.841 182.868 268.841 180.647" stroke="#000000" stroke-opacity="0.9" stroke-width="16" stroke-linecap="round" stroke-linejoin="round"/>
<path d="M206 230C206.156 247.007 206.49 278.674 207 325M207 75C206.494 81.6777 206.16 88.3444 206 95L207 75ZM205.987 153C205.987 157.111 205.996 161.444 206.012 166L205.987 153Z" stroke="#000000" stroke-opacity="0.9" stroke-width="16" stroke-linecap="round" stroke-linejoin="round"/>
</svg>