<svg xmlns="http://www.w3.org/2000/svg" width="800px" height="800px" viewBox="0 0 400 400" fill="none">
<path d="M206.35 205.911C206.35 216.248 206.35 226.581 206.35 236.914C206.35 244.744 204.248 355.928 206.35 334.579" stroke="#000000" stroke-opacity="0.9" stroke-width="16" stroke-linecap="round" stroke-linejoin="round"/>
<path d="M201.279 233.571C197.069 226.758 192.291 220.893 186.297 216.284" stroke="#000000" stroke-opacity="0.9" stroke-width="16" stroke-linecap="round" stroke-linejoin="round"/>
<path d="M213.954 270.451C228.369 265.008 239.725 253.769 254.291 248.554" stroke="#000000" stroke-opacity="0.9" stroke-width="16" stroke-linecap="round" stroke-linejoin="round"/>
<path d="M198.17 296.034C170.497 315.959 151.731 267.127 140.028 264.198C131.148 261.975 106.946 298.869 76.4611 237.799C62.8274 210.483 61.1037 150.264 98.9435 137.632C108.034 134.596 110.74 142.288 116.773 142.288C121.032 142.288 113.673 134.136 113.673 129.866C113.673 114.534 115.724 101.155 124.526 87.9325C162.518 30.8507 187.465 89.7997 195.07 88.7099C208.017 86.8583 234.037 48.1748 273.366 77.0615C318.561 110.261 281.037 129.253 270.266 150.831C269.81 151.741 282.234 152.694 293.52 157.042C312.212 164.245 331.508 185.049 331.508 205.963C331.508 219.069 317.469 224.334 316.003 233.139C311.756 258.651 338.75 283.869 282.667 299.916C271.529 303.104 262.33 307.076 250.884 303.799" stroke="#000000" stroke-opacity="0.9" stroke-width="16" stroke-linecap="round" stroke-linejoin="round"/>
</svg>